<mxfile host="app.diagrams.net" modified="2024-03-22T15:37:22.541Z" agent="Mozilla/5.0 (Windows NT 10.0; Win64; x64) AppleWebKit/537.36 (KHTML, like Gecko) Chrome/123.0.0.0 Safari/537.36" etag="yQWH0lUBN-T4b_QDqZvm" version="24.0.0" type="device">
  <diagram name="Page-1" id="2YBvvXClWsGukQMizWep">
    <mxGraphModel dx="2163" dy="1753" grid="1" gridSize="10" guides="1" tooltips="1" connect="1" arrows="1" fold="1" page="1" pageScale="1" pageWidth="850" pageHeight="1100" math="0" shadow="0">
      <root>
        <mxCell id="0" />
        <mxCell id="1" parent="0" />
        <mxCell id="F_i5TO7sw10sZk64kRbe-2" value="+main():void&lt;div&gt;#getIntegerinput;int&lt;/div&gt;&lt;div&gt;+execute: int&lt;/div&gt;" style="rounded=0;whiteSpace=wrap;html=1;" parent="1" vertex="1">
          <mxGeometry x="90" y="130" width="120" height="60" as="geometry" />
        </mxCell>
        <mxCell id="vj7qBHkroABkfN-jJwas-14" style="edgeStyle=orthogonalEdgeStyle;rounded=0;orthogonalLoop=1;jettySize=auto;html=1;exitX=0.5;exitY=1;exitDx=0;exitDy=0;" parent="1" source="F_i5TO7sw10sZk64kRbe-2" target="F_i5TO7sw10sZk64kRbe-2" edge="1">
          <mxGeometry relative="1" as="geometry" />
        </mxCell>
        <mxCell id="vj7qBHkroABkfN-jJwas-48" value="&lt;h3&gt;INITIAL MENU&lt;/h3&gt;" style="rounded=0;whiteSpace=wrap;html=1;" parent="1" vertex="1">
          <mxGeometry x="240" y="370" width="180" height="30" as="geometry" />
        </mxCell>
        <mxCell id="vj7qBHkroABkfN-jJwas-49" value="&lt;h3&gt;SIGN-IN FORM&lt;/h3&gt;" style="rounded=0;whiteSpace=wrap;html=1;" parent="1" vertex="1">
          <mxGeometry x="90" y="370" width="125" height="30" as="geometry" />
        </mxCell>
        <mxCell id="JjKd4chCVROI2ldbQg30-6" style="edgeStyle=orthogonalEdgeStyle;rounded=0;orthogonalLoop=1;jettySize=auto;html=1;exitX=0.25;exitY=0;exitDx=0;exitDy=0;entryX=0.5;entryY=1;entryDx=0;entryDy=0;" edge="1" parent="1" source="vj7qBHkroABkfN-jJwas-50" target="F_i5TO7sw10sZk64kRbe-2">
          <mxGeometry relative="1" as="geometry" />
        </mxCell>
        <mxCell id="vj7qBHkroABkfN-jJwas-50" value="&lt;h3&gt;SIGN-OUT FORM&lt;/h3&gt;" style="rounded=0;whiteSpace=wrap;html=1;" parent="1" vertex="1">
          <mxGeometry x="-80" y="370" width="130" height="30" as="geometry" />
        </mxCell>
        <mxCell id="vj7qBHkroABkfN-jJwas-55" value="&lt;h3&gt;MENU&lt;/h3&gt;" style="html=1;whiteSpace=wrap;" parent="1" vertex="1">
          <mxGeometry x="90" y="40" width="120" height="30" as="geometry" />
        </mxCell>
        <mxCell id="vj7qBHkroABkfN-jJwas-56" value="&lt;h3&gt;DATA&lt;/h3&gt;" style="html=1;whiteSpace=wrap;" parent="1" vertex="1">
          <mxGeometry x="600" y="30" width="190" height="20" as="geometry" />
        </mxCell>
        <mxCell id="vj7qBHkroABkfN-jJwas-57" value="+Floor_occupancy:Haspmap&lt;div&gt;+Computer_occupancy:Hashmap&lt;/div&gt;&lt;div&gt;Computer area usage&lt;/div&gt;" style="html=1;whiteSpace=wrap;" parent="1" vertex="1">
          <mxGeometry x="600" y="90" width="190" height="60" as="geometry" />
        </mxCell>
        <mxCell id="vj7qBHkroABkfN-jJwas-59" value="&lt;h3&gt;COMPUTER&lt;/h3&gt;" style="html=1;whiteSpace=wrap;" parent="1" vertex="1">
          <mxGeometry x="440" y="200" width="170" height="30" as="geometry" />
        </mxCell>
        <mxCell id="vj7qBHkroABkfN-jJwas-60" value="+Computer_vacancy:Hashmaps&lt;div&gt;+getComputeravailabilty:Int&lt;/div&gt;&lt;div&gt;+new_computer_ava: Haspmaps&lt;/div&gt;" style="rounded=0;whiteSpace=wrap;html=1;" parent="1" vertex="1">
          <mxGeometry x="440" y="260" width="170" height="100" as="geometry" />
        </mxCell>
        <mxCell id="JjKd4chCVROI2ldbQg30-14" style="edgeStyle=orthogonalEdgeStyle;rounded=0;orthogonalLoop=1;jettySize=auto;html=1;exitX=0.75;exitY=0;exitDx=0;exitDy=0;entryX=0.75;entryY=1;entryDx=0;entryDy=0;" edge="1" parent="1" source="vj7qBHkroABkfN-jJwas-64" target="vj7qBHkroABkfN-jJwas-57">
          <mxGeometry relative="1" as="geometry" />
        </mxCell>
        <mxCell id="vj7qBHkroABkfN-jJwas-64" value="&lt;h3&gt;Floor&lt;/h3&gt;" style="html=1;whiteSpace=wrap;" parent="1" vertex="1">
          <mxGeometry x="670" y="200" width="160" height="30" as="geometry" />
        </mxCell>
        <mxCell id="vj7qBHkroABkfN-jJwas-65" value="+Floor_vacancy:Hashmaps&lt;div&gt;+getFlooravailabilty:int&lt;/div&gt;&lt;div&gt;+new_floor_ava::Haspmaps&lt;/div&gt;" style="html=1;whiteSpace=wrap;" parent="1" vertex="1">
          <mxGeometry x="670" y="260" width="160" height="100" as="geometry" />
        </mxCell>
        <mxCell id="JjKd4chCVROI2ldbQg30-1" value="-computer_availability:int" style="rounded=0;whiteSpace=wrap;html=1;" vertex="1" parent="1">
          <mxGeometry x="440" y="230" width="170" height="30" as="geometry" />
        </mxCell>
        <mxCell id="JjKd4chCVROI2ldbQg30-2" value="-floor_availability:int" style="rounded=0;whiteSpace=wrap;html=1;" vertex="1" parent="1">
          <mxGeometry x="670" y="230" width="160" height="30" as="geometry" />
        </mxCell>
        <mxCell id="JjKd4chCVROI2ldbQg30-3" value="-name: String&lt;div&gt;-id: Integer&lt;/div&gt;&lt;div&gt;-floor: int&lt;/div&gt;" style="rounded=0;whiteSpace=wrap;html=1;" vertex="1" parent="1">
          <mxGeometry x="600" y="50" width="190" height="40" as="geometry" />
        </mxCell>
        <mxCell id="JjKd4chCVROI2ldbQg30-5" value="#info1:Arraylist&lt;div&gt;#info2:Arraylist&lt;/div&gt;&lt;div&gt;#info3:Arraylist&lt;/div&gt;" style="rounded=0;whiteSpace=wrap;html=1;" vertex="1" parent="1">
          <mxGeometry x="90" y="70" width="120" height="60" as="geometry" />
        </mxCell>
        <mxCell id="JjKd4chCVROI2ldbQg30-8" style="edgeStyle=orthogonalEdgeStyle;rounded=0;orthogonalLoop=1;jettySize=auto;html=1;exitX=0.5;exitY=0;exitDx=0;exitDy=0;" edge="1" parent="1" source="vj7qBHkroABkfN-jJwas-49" target="F_i5TO7sw10sZk64kRbe-2">
          <mxGeometry relative="1" as="geometry" />
        </mxCell>
        <mxCell id="JjKd4chCVROI2ldbQg30-9" style="edgeStyle=orthogonalEdgeStyle;rounded=0;orthogonalLoop=1;jettySize=auto;html=1;exitX=0.25;exitY=0;exitDx=0;exitDy=0;entryX=0.5;entryY=1;entryDx=0;entryDy=0;" edge="1" parent="1" source="vj7qBHkroABkfN-jJwas-48" target="F_i5TO7sw10sZk64kRbe-2">
          <mxGeometry relative="1" as="geometry">
            <mxPoint x="150" y="200" as="targetPoint" />
          </mxGeometry>
        </mxCell>
        <mxCell id="JjKd4chCVROI2ldbQg30-15" style="edgeStyle=orthogonalEdgeStyle;rounded=0;orthogonalLoop=1;jettySize=auto;html=1;exitX=0.75;exitY=0;exitDx=0;exitDy=0;entryX=0.463;entryY=0.987;entryDx=0;entryDy=0;entryPerimeter=0;" edge="1" parent="1" source="vj7qBHkroABkfN-jJwas-59" target="vj7qBHkroABkfN-jJwas-57">
          <mxGeometry relative="1" as="geometry" />
        </mxCell>
        <mxCell id="JjKd4chCVROI2ldbQg30-16" value="&lt;b&gt;STATS&lt;/b&gt;" style="swimlane;fontStyle=0;childLayout=stackLayout;horizontal=1;startSize=26;fillColor=none;horizontalStack=0;resizeParent=1;resizeParentMax=0;resizeLast=0;collapsible=1;marginBottom=0;whiteSpace=wrap;html=1;" vertex="1" parent="1">
          <mxGeometry x="-320" y="50" width="140" height="104" as="geometry" />
        </mxCell>
        <mxCell id="JjKd4chCVROI2ldbQg30-17" value="+Show_vacancy: String" style="text;strokeColor=none;fillColor=none;align=left;verticalAlign=top;spacingLeft=4;spacingRight=4;overflow=hidden;rotatable=0;points=[[0,0.5],[1,0.5]];portConstraint=eastwest;whiteSpace=wrap;html=1;" vertex="1" parent="JjKd4chCVROI2ldbQg30-16">
          <mxGeometry y="26" width="140" height="26" as="geometry" />
        </mxCell>
        <mxCell id="JjKd4chCVROI2ldbQg30-18" value="+max_min:int[]" style="text;strokeColor=none;fillColor=none;align=left;verticalAlign=top;spacingLeft=4;spacingRight=4;overflow=hidden;rotatable=0;points=[[0,0.5],[1,0.5]];portConstraint=eastwest;whiteSpace=wrap;html=1;" vertex="1" parent="JjKd4chCVROI2ldbQg30-16">
          <mxGeometry y="52" width="140" height="26" as="geometry" />
        </mxCell>
        <mxCell id="JjKd4chCVROI2ldbQg30-19" value="+formatAsGrid: String" style="text;strokeColor=none;fillColor=none;align=left;verticalAlign=top;spacingLeft=4;spacingRight=4;overflow=hidden;rotatable=0;points=[[0,0.5],[1,0.5]];portConstraint=eastwest;whiteSpace=wrap;html=1;" vertex="1" parent="JjKd4chCVROI2ldbQg30-16">
          <mxGeometry y="78" width="140" height="26" as="geometry" />
        </mxCell>
        <mxCell id="JjKd4chCVROI2ldbQg30-20" value="" style="endArrow=diamondThin;endFill=0;endSize=24;html=1;rounded=0;entryX=1;entryY=0.5;entryDx=0;entryDy=0;exitX=0;exitY=0.75;exitDx=0;exitDy=0;" edge="1" parent="1" source="JjKd4chCVROI2ldbQg30-3" target="JjKd4chCVROI2ldbQg30-17">
          <mxGeometry width="160" relative="1" as="geometry">
            <mxPoint x="140" y="110" as="sourcePoint" />
            <mxPoint x="300" y="110" as="targetPoint" />
            <Array as="points">
              <mxPoint x="400" y="10" />
              <mxPoint x="170" y="10" />
              <mxPoint x="-10" y="10" />
            </Array>
          </mxGeometry>
        </mxCell>
        <mxCell id="JjKd4chCVROI2ldbQg30-21" value="" style="endArrow=none;html=1;rounded=0;exitX=1;exitY=0.5;exitDx=0;exitDy=0;entryX=0;entryY=0.5;entryDx=0;entryDy=0;" edge="1" parent="1" source="JjKd4chCVROI2ldbQg30-18" target="F_i5TO7sw10sZk64kRbe-2">
          <mxGeometry width="50" height="50" relative="1" as="geometry">
            <mxPoint x="150" y="180" as="sourcePoint" />
            <mxPoint x="200" y="130" as="targetPoint" />
            <Array as="points">
              <mxPoint x="-50" y="160" />
            </Array>
          </mxGeometry>
        </mxCell>
        <mxCell id="JjKd4chCVROI2ldbQg30-24" value="Use" style="endArrow=open;endSize=12;dashed=1;html=1;rounded=0;exitX=0.75;exitY=0;exitDx=0;exitDy=0;entryX=0.25;entryY=0;entryDx=0;entryDy=0;" edge="1" parent="1" source="JjKd4chCVROI2ldbQg30-16" target="vj7qBHkroABkfN-jJwas-56">
          <mxGeometry width="160" relative="1" as="geometry">
            <mxPoint x="50" y="270" as="sourcePoint" />
            <mxPoint x="210" y="270" as="targetPoint" />
            <Array as="points">
              <mxPoint x="-200" y="-20" />
              <mxPoint x="200" y="-20" />
              <mxPoint x="640" y="-30" />
            </Array>
          </mxGeometry>
        </mxCell>
        <mxCell id="JjKd4chCVROI2ldbQg30-26" value="1" style="endArrow=open;html=1;endSize=12;startArrow=diamondThin;startSize=14;startFill=1;edgeStyle=orthogonalEdgeStyle;align=left;verticalAlign=bottom;rounded=0;exitX=1;exitY=0.5;exitDx=0;exitDy=0;entryX=0;entryY=0.5;entryDx=0;entryDy=0;" edge="1" parent="1" source="JjKd4chCVROI2ldbQg30-5" target="vj7qBHkroABkfN-jJwas-57">
          <mxGeometry x="-1" y="3" relative="1" as="geometry">
            <mxPoint x="200" y="270" as="sourcePoint" />
            <mxPoint x="360" y="270" as="targetPoint" />
          </mxGeometry>
        </mxCell>
        <mxCell id="JjKd4chCVROI2ldbQg30-29" value="" style="endArrow=block;dashed=1;endFill=0;endSize=12;html=1;rounded=0;exitX=0.25;exitY=1;exitDx=0;exitDy=0;entryX=0.75;entryY=1;entryDx=0;entryDy=0;" edge="1" parent="1" source="JjKd4chCVROI2ldbQg30-33" target="vj7qBHkroABkfN-jJwas-60">
          <mxGeometry width="160" relative="1" as="geometry">
            <mxPoint x="200" y="270" as="sourcePoint" />
            <mxPoint x="630" y="460" as="targetPoint" />
            <Array as="points">
              <mxPoint x="114" y="560" />
              <mxPoint x="570" y="560" />
            </Array>
          </mxGeometry>
        </mxCell>
        <mxCell id="JjKd4chCVROI2ldbQg30-30" value="" style="endArrow=block;dashed=1;endFill=0;endSize=12;html=1;rounded=0;exitX=0.75;exitY=1;exitDx=0;exitDy=0;entryX=0.5;entryY=1;entryDx=0;entryDy=0;" edge="1" parent="1" source="vj7qBHkroABkfN-jJwas-49" target="vj7qBHkroABkfN-jJwas-65">
          <mxGeometry width="160" relative="1" as="geometry">
            <mxPoint x="200" y="270" as="sourcePoint" />
            <mxPoint x="810" y="540" as="targetPoint" />
            <Array as="points">
              <mxPoint x="180" y="530" />
              <mxPoint x="750" y="530" />
            </Array>
          </mxGeometry>
        </mxCell>
        <mxCell id="JjKd4chCVROI2ldbQg30-31" value="+execute:Integer[]&lt;div&gt;++findUserfloor:floor&lt;/div&gt;" style="rounded=0;whiteSpace=wrap;html=1;" vertex="1" parent="1">
          <mxGeometry x="-80" y="400" width="130" height="100" as="geometry" />
        </mxCell>
        <mxCell id="JjKd4chCVROI2ldbQg30-34" value="" style="endArrow=block;dashed=1;endFill=0;endSize=12;html=1;rounded=0;exitX=0.25;exitY=1;exitDx=0;exitDy=0;entryX=0.75;entryY=1;entryDx=0;entryDy=0;" edge="1" parent="1" source="vj7qBHkroABkfN-jJwas-49" target="JjKd4chCVROI2ldbQg30-33">
          <mxGeometry width="160" relative="1" as="geometry">
            <mxPoint x="118" y="400" as="sourcePoint" />
            <mxPoint x="568" y="360" as="targetPoint" />
            <Array as="points" />
          </mxGeometry>
        </mxCell>
        <mxCell id="JjKd4chCVROI2ldbQg30-33" value="+execute: Integer[]&lt;div&gt;+AskforComputerUsage:&lt;/div&gt;&lt;div&gt;boolean&lt;/div&gt;" style="rounded=0;whiteSpace=wrap;html=1;" vertex="1" parent="1">
          <mxGeometry x="90" y="400" width="125" height="100" as="geometry" />
        </mxCell>
        <mxCell id="JjKd4chCVROI2ldbQg30-35" value="+ execute: Integer[]&lt;div&gt;+ getareaselection:area&lt;/div&gt;&lt;div&gt;+getfloorselecction:floor&lt;/div&gt;&lt;div&gt;+choosearea selection:area&lt;/div&gt;&lt;div&gt;+chooseFloorSelection:floor&lt;/div&gt;" style="rounded=0;whiteSpace=wrap;html=1;" vertex="1" parent="1">
          <mxGeometry x="240" y="400" width="180" height="100" as="geometry" />
        </mxCell>
        <mxCell id="JjKd4chCVROI2ldbQg30-36" value="" style="endArrow=block;dashed=1;endFill=0;endSize=12;html=1;rounded=0;exitX=0.25;exitY=1;exitDx=0;exitDy=0;entryX=0.25;entryY=1;entryDx=0;entryDy=0;" edge="1" parent="1" source="JjKd4chCVROI2ldbQg30-31" target="vj7qBHkroABkfN-jJwas-57">
          <mxGeometry width="160" relative="1" as="geometry">
            <mxPoint x="200" y="270" as="sourcePoint" />
            <mxPoint x="360" y="270" as="targetPoint" />
            <Array as="points">
              <mxPoint x="-47" y="610" />
              <mxPoint x="660" y="610" />
            </Array>
          </mxGeometry>
        </mxCell>
        <mxCell id="JjKd4chCVROI2ldbQg30-37" value="" style="endArrow=block;dashed=1;endFill=0;endSize=12;html=1;rounded=0;exitX=0.5;exitY=1;exitDx=0;exitDy=0;entryX=0.875;entryY=1.03;entryDx=0;entryDy=0;entryPerimeter=0;" edge="1" parent="1" source="JjKd4chCVROI2ldbQg30-35" target="vj7qBHkroABkfN-jJwas-65">
          <mxGeometry width="160" relative="1" as="geometry">
            <mxPoint x="200" y="320" as="sourcePoint" />
            <mxPoint x="360" y="320" as="targetPoint" />
            <Array as="points">
              <mxPoint x="330" y="630" />
              <mxPoint x="820" y="630" />
            </Array>
          </mxGeometry>
        </mxCell>
        <mxCell id="JjKd4chCVROI2ldbQg30-38" value="" style="endArrow=block;dashed=1;endFill=0;endSize=12;html=1;rounded=0;exitX=0.5;exitY=1;exitDx=0;exitDy=0;entryX=0.25;entryY=1;entryDx=0;entryDy=0;" edge="1" parent="1" source="JjKd4chCVROI2ldbQg30-33" target="vj7qBHkroABkfN-jJwas-65">
          <mxGeometry width="160" relative="1" as="geometry">
            <mxPoint x="200" y="510" as="sourcePoint" />
            <mxPoint x="760" y="660" as="targetPoint" />
            <Array as="points">
              <mxPoint x="153" y="660" />
              <mxPoint x="720" y="660" />
            </Array>
          </mxGeometry>
        </mxCell>
      </root>
    </mxGraphModel>
  </diagram>
</mxfile>
